<svg xmlns="http://www.w3.org/2000/svg" viewBox="0 0 1024 1024" width="1024" height="1024">
     <defs>
  <linearGradient id="cave" x1="0" y1="0" x2="0.4" y2="1">
    <stop offset="0" stop-color="#13231F"/><stop offset="1" stop-color="#060C0B"/></linearGradient>
  <radialGradient id="spill" cx="50%" cy="52%" r="52%">
    <stop offset="0" stop-color="#FFB65A" stop-opacity=".34"/>
    <stop offset="100%" stop-color="#FFB65A" stop-opacity="0"/></radialGradient>
  <linearGradient id="world" x1="0" y1="0" x2="0" y2="1">
    <stop offset="0" stop-color="#FFE3A8"/><stop offset="0.55" stop-color="#FFB65A"/>
    <stop offset="1" stop-color="#EE8A3C"/></linearGradient>
  <linearGradient id="gold" x1="0" y1="0" x2="0.3" y2="1">
    <stop offset="0" stop-color="#FFD68F"/><stop offset="1" stop-color="#EE9A3C"/></linearGradient>
  <linearGradient id="screen" x1="0" y1="0" x2="0.2" y2="1">
    <stop offset="0" stop-color="#FFE7B4"/><stop offset="1" stop-color="#F5A94B"/></linearGradient></defs>
  <rect width="1024" height="1024" fill="url(#cave)"/>
  <rect width="1024" height="1024" fill="url(#spill)"/>
  <path d="M252 892 L252 512 a260 260 0 0 1 520 0 L772 892 Z" fill="url(#gold)"/><path d="M336 892 L336 556 a176 176 0 0 1 352 0 L688 892 Z" fill="#241608"/><path d="M396 892 L396 610 a116 116 0 0 1 232 0 L628 892 Z" fill="url(#world)"/>
  <path d="M300 892 L724 892 L806 962 L218 962 Z" fill="url(#gold)" opacity=".2"/></svg>